<svg width="25" height="23" viewBox="0 0 25 23" fill="none" xmlns="http://www.w3.org/2000/svg">
<rect width="25" height="23" rx="6" fill="#FBC8FF"/>
<path d="M12.5 5.354C13.2349 5.354 13.9396 5.64593 14.4593 6.16556C14.9789 6.68519 15.2708 7.38997 15.2708 8.12484C15.2708 8.85971 14.9789 9.56448 14.4593 10.0841C13.9396 10.6037 13.2349 10.8957 12.5 10.8957C11.7651 10.8957 11.0604 10.6037 10.5407 10.0841C10.0211 9.56448 9.72917 8.85971 9.72917 8.12484C9.72917 7.38997 10.0211 6.68519 10.5407 6.16556C11.0604 5.64593 11.7651 5.354 12.5 5.354ZM6.95833 7.33317C7.40167 7.33317 7.81333 7.45192 8.16958 7.66567C8.05083 8.79775 8.38333 9.92192 9.06417 10.8007C8.66833 11.5607 7.87667 12.0832 6.95833 12.0832C6.32844 12.0832 5.72435 11.8329 5.27895 11.3875C4.83356 10.9422 4.58333 10.3381 4.58333 9.70817C4.58333 9.07828 4.83356 8.47419 5.27895 8.02879C5.72435 7.58339 6.32844 7.33317 6.95833 7.33317ZM18.0417 7.33317C18.6716 7.33317 19.2756 7.58339 19.721 8.02879C20.1664 8.47419 20.4167 9.07828 20.4167 9.70817C20.4167 10.3381 20.1664 10.9422 19.721 11.3875C19.2756 11.8329 18.6716 12.0832 18.0417 12.0832C17.1233 12.0832 16.3317 11.5607 15.9358 10.8007C16.6261 9.90959 16.9464 8.78683 16.8304 7.66567C17.1867 7.45192 17.5983 7.33317 18.0417 7.33317ZM7.35417 15.4478C7.35417 13.809 9.65792 12.479 12.5 12.479C15.3421 12.479 17.6458 13.809 17.6458 15.4478V16.8332H7.35417V15.4478ZM3 16.8332V15.6457C3 14.5453 4.49625 13.619 6.52292 13.3498C6.05583 13.8882 5.77083 14.6323 5.77083 15.4478V16.8332H3ZM22 16.8332H19.2292V15.4478C19.2292 14.6323 18.9442 13.8882 18.4771 13.3498C20.5037 13.619 22 14.5453 22 15.6457V16.8332Z" fill="#8F3877"/>
</svg>
