<svg width="25" height="23" viewBox="0 0 25 23" fill="none" xmlns="http://www.w3.org/2000/svg">
<rect width="25" height="23" rx="6" fill="#FFE9C8"/>
<path d="M16.6668 14.3823C16.3525 14.3822 16.0415 14.4451 15.7526 14.5673C15.4636 14.6894 15.2027 14.8683 14.9855 15.093L9.59029 12.089C9.6948 11.7006 9.6948 11.2919 9.59029 10.9035L14.9855 7.89949C15.3784 8.30258 15.9063 8.55009 16.4703 8.59564C17.0343 8.64119 17.5958 8.48167 18.0495 8.14695C18.5032 7.81223 18.8181 7.32529 18.935 6.77734C19.052 6.2294 18.9631 5.65805 18.6849 5.17033C18.4068 4.68261 17.9584 4.31199 17.424 4.1279C16.8895 3.94381 16.3056 3.95888 15.7815 4.17029C15.2575 4.38169 14.8293 4.77493 14.5772 5.27633C14.3251 5.77773 14.2664 6.35289 14.4121 6.89406L9.01687 9.89809C8.6946 9.56555 8.27916 9.33605 7.824 9.23909C7.36884 9.14214 6.89477 9.18217 6.46279 9.35404C6.03081 9.52591 5.66067 9.82175 5.39998 10.2035C5.1393 10.5853 5 11.0355 5 11.4962C5 11.957 5.1393 12.4072 5.39998 12.789C5.66067 13.1707 6.03081 13.4666 6.46279 13.6385C6.89477 13.8103 7.36884 13.8504 7.824 13.7534C8.27916 13.6564 8.6946 13.4269 9.01687 13.0944L14.4121 16.0984C14.287 16.5645 14.3125 17.0576 14.485 17.5086C14.6575 17.9596 14.9684 18.3458 15.374 18.613C15.7796 18.8802 16.2595 19.0151 16.7465 18.9987C17.2335 18.9822 17.7031 18.8153 18.0893 18.5213C18.4755 18.2273 18.7591 17.821 18.9001 17.3595C19.0412 16.8979 19.0326 16.4042 18.8757 15.9477C18.7188 15.4911 18.4214 15.0947 18.0252 14.814C17.6291 14.5332 17.154 14.3823 16.6668 14.3823Z" fill="#EE9B4E"/>
</svg>
