<svg width="25" height="23" viewBox="0 0 25 23" fill="none" xmlns="http://www.w3.org/2000/svg">
<rect width="25" height="23" rx="6" fill="#C8EFFF"/>
<path d="M5.41666 18.5834V5.83341C5.41666 5.44383 5.55549 5.11021 5.83316 4.83254C6.11035 4.55535 6.44374 4.41675 6.83332 4.41675H18.1667C18.5562 4.41675 18.8899 4.55535 19.1675 4.83254C19.4447 5.11021 19.5833 5.44383 19.5833 5.83341V14.3334C19.5833 14.723 19.4447 15.0566 19.1675 15.3343C18.8899 15.6115 18.5562 15.7501 18.1667 15.7501H8.24999L5.41666 18.5834ZM11.9687 13.6251H13.0312V6.54175H11.9687V13.6251ZM10.0208 12.2084H11.0833V7.95842H10.0208V12.2084ZM8.24999 10.7917H9.31249V9.37508H8.24999V10.7917ZM13.9167 12.2084H14.9792V7.95842H13.9167V12.2084ZM15.6875 10.7917H16.75V9.37508H15.6875V10.7917Z" fill="#38768F"/>
</svg>
